<?xml version="1.0" encoding="utf-8"?>
<!-- Generator: Adobe Illustrator 22.0.1, SVG Export Plug-In . SVG Version: 6.00 Build 0)  -->
<svg version="1.1" xmlns="http://www.w3.org/2000/svg" xmlns:xlink="http://www.w3.org/1999/xlink" x="0px" y="0px"
	 viewBox="0 0 45 40" style="enable-background:new 0 0 45 40;" xml:space="preserve">
<style type="text/css">
	.st0{display:none;}
	.st1{fill:#BF7E1F;}
	.st2{fill:#843D08;}
</style>
<g id="Слой_1" class="st0">
</g>
<g id="Слой_2">
	<g>
		<rect x="2.3" y="9.3" class="st1" width="40.5" height="30.5"/>
		<path class="st2" d="M42.5,9.5v30h-40v-30H42.5 M43,9H2v31h41V9L43,9z"/>
	</g>
</g>
<g id="Слой_3">
	<g>
		<path class="st1" d="M2,8.8C1,8.8,0.3,8,0.3,7V2C0.3,1,1,0.3,2,0.3h41c1,0,1.8,0.8,1.8,1.8v5c0,1-0.8,1.8-1.8,1.8H2z"/>
		<path class="st2" d="M43,0.5c0.8,0,1.5,0.7,1.5,1.5v5c0,0.8-0.7,1.5-1.5,1.5H2C1.2,8.5,0.5,7.8,0.5,7V2c0-0.8,0.7-1.5,1.5-1.5H43
			 M43,0H2C0.9,0,0,0.9,0,2v5c0,1.1,0.9,2,2,2h41c1.1,0,2-0.9,2-2V2C45,0.9,44.1,0,43,0L43,0z"/>
	</g>
</g>
</svg>
