<svg xmlns="http://www.w3.org/2000/svg" viewBox="0 0 300 300"><defs><style>.cls-1{fill:#fff;}.cls-2{fill:none;stroke:#fff;stroke-miterlimit:10;stroke-width:5px;}</style></defs><title>Монтажная область 1</title><g id="Слой_1" data-name="Слой 1"><rect class="cls-1" x="165.51" y="94.42" width="34.31" height="2.41" rx="1.21" ry="1.21" transform="translate(-14.12 157.17) rotate(-45)"/><rect class="cls-1" x="180.51" y="145.42" width="34.31" height="2.41" rx="1.21" ry="1.21" transform="translate(-45.79 182.72) rotate(-45)"/><rect class="cls-1" x="193.01" y="148.21" width="34.31" height="3.83" rx="1.91" ry="1.91" transform="translate(-44.6 192.58) rotate(-45)"/><rect class="cls-1" x="197.51" y="172.42" width="34.31" height="2.41" rx="1.21" ry="1.21" transform="translate(-59.9 202.65) rotate(-45)"/><rect class="cls-1" x="104" y="153" width="19" height="2" rx="1" ry="1" transform="translate(-75.65 125.36) rotate(-45)"/><rect class="cls-1" x="155" y="151" width="19" height="2" rx="1" ry="1" transform="translate(-59.3 160.84) rotate(-45)"/></g><g id="Слой_2" data-name="Слой 2"><circle class="cls-2" cx="150" cy="150" r="147.5"/></g><g id="Слой_4" data-name="Слой 4"><path class="cls-1" d="M85,223.37l-9.22,9.22a1.26,1.26,0,0,0,.9,2.15h28.05a1.25,1.25,0,0,0,1.26-1.26v-3.43a1.27,1.27,0,0,0-1.17-1.26q-14.53-1.15-19-4.74C85.55,223.83,85.3,223.6,85,223.37Z"/><path class="cls-1" d="M82.85,222.74A1.29,1.29,0,0,0,83,221.1a9.67,9.67,0,0,1-1.85-5.69q0-6.18,5.39-18.7l14.25-33.15a1.27,1.27,0,0,1,1.16-.76h40.31a1.26,1.26,0,0,0,.9-.37l9.2-9.2a1.27,1.27,0,0,0-.89-2.16H108a1.26,1.26,0,0,1-1.16-1.76l11.15-25.9a1.26,1.26,0,0,0-2-1.39l-1.76,1.77a1,1,0,0,1-1.42,0h0a1,1,0,0,1,0-1.42l9.81-9.8a1.27,1.27,0,0,0,.26-.39L142.26,67a1.26,1.26,0,0,1,2.32,0l27.07,64.5a1.27,1.27,0,0,0,2.06.41l20.59-20.6a1.26,1.26,0,0,0,.27-1.38L165.49,40.39a1.27,1.27,0,0,0-2.06-.41L147.79,55.63a1,1,0,0,1-1.42,0h0a1,1,0,0,1,0-1.42l17-17a1.26,1.26,0,0,0,.27-1.38l-8.44-20.16A1.24,1.24,0,0,0,154,15h-3.87a1.26,1.26,0,0,0-1.16.76L78.82,179.82a1.26,1.26,0,0,0,2.05,1.39h0a1,1,0,0,1,1.42,0h0a1,1,0,0,1,0,1.42l-8,8a1.14,1.14,0,0,0-.27.39l-.35.81q-9.82,23.3-17.9,30.9-3.81,3.66-16.39,6a1.26,1.26,0,0,0-1,1.24v3.55a1.25,1.25,0,0,0,1.26,1.26H70.32a1.26,1.26,0,0,0,.89-.37Z"/><path class="cls-1" d="M246,221.67q-5.49-4.78-11.92-18a1.27,1.27,0,0,0-2-.35l-17.6,17.6a1,1,0,0,1-1.41,0h0a1,1,0,0,1,0-1.41l18.76-18.76a1.27,1.27,0,0,0,.26-1.41c-.81-1.79-1.63-3.66-2.46-5.64l-33.18-79.29a1.26,1.26,0,0,0-2.05-.4L173.82,134.6a1.27,1.27,0,0,0-.28,1.38l5.6,13.34a1.26,1.26,0,0,1-1.16,1.75H157.86a1.3,1.3,0,0,0-.89.37l-9.2,9.21a1.26,1.26,0,0,0,.89,2.15h34.82a1.25,1.25,0,0,1,1.16.77l12.67,30.13q6.33,15.06,6.34,22a11,11,0,0,1-4.52,8.87q-4.31,3.48-16.15,4.21a1.27,1.27,0,0,0-1.2,1.25v3.43a1.26,1.26,0,0,0,1.26,1.25H265.3a1.25,1.25,0,0,0,1.26-1.26v-3.43a1.26,1.26,0,0,0-1.17-1.25Q253.08,227.8,246,221.67Z"/><rect class="cls-1" x="156.51" y="73.42" width="34.31" height="2.41" rx="1.21" ry="1.21" transform="translate(-1.9 144.66) rotate(-45)"/><rect class="cls-1" x="166.76" y="77.32" width="34.31" height="3.12" rx="1.56" ry="1.56" transform="translate(-1.91 153.15) rotate(-45)"/></g></svg>